<?xml version="1.0" encoding="utf-8"?><!DOCTYPE svg PUBLIC "-//W3C//DTD SVG 1.1//EN" "http://www.w3.org/Graphics/SVG/1.1/DTD/svg11.dtd"><svg version="1.1" xmlns="http://www.w3.org/2000/svg" xmlns:xlink="http://www.w3.org/1999/xlink" width="16.000031381845474" height="28" viewBox="0 0 16.000031381845474 28" data-code="61675" data-tags="lightbulb-o"><g fill="#444" transform="scale(0.02734375 0.02734375)"><path d="M420.571 329.143q0 7.429-5.429 12.857t-12.857 5.429-12.857-5.429-5.429-12.857q0-26.286-30.857-40.571t-60.571-14.286q-7.429 0-12.857-5.429t-5.429-12.857 5.429-12.857 12.857-5.429q28.571 0 56.857 9.143t49.714 30.857 21.429 51.429zM512 329.143q0-41.143-19.714-76.571t-51.429-58-70.286-35.429-78-12.857-78 12.857-70.286 35.429-51.429 58-19.714 76.571q0 57.714 38.857 102.857 5.714 6.286 17.429 18.857t17.429 18.857q73.143 87.429 80.571 170.286h130.286q7.429-82.857 80.571-170.286 5.714-6.286 17.429-18.857t17.429-18.857q38.857-45.143 38.857-102.857zM585.143 329.143q0 88.571-58.857 153.143-25.714 28-42.571 49.714t-34 54.571-19.429 61.429q26.857 16 26.857 46.857 0 21.143-14.286 36.571 14.286 15.429 14.286 36.571 0 29.714-25.714 46.286 7.429 13.143 7.429 26.857 0 26.286-18 40.571t-44.286 14.286q-11.429 25.143-34.286 40t-49.714 14.857-49.714-14.857-34.286-40q-26.286 0-44.286-14.286t-18-40.571q0-13.714 7.429-26.857-25.714-16.571-25.714-46.286 0-21.143 14.286-36.571-14.286-15.429-14.286-36.571 0-30.857 26.857-46.857-2.286-28.571-19.429-61.429t-34-54.571-42.571-49.714q-58.857-64.571-58.857-153.143 0-56.571 25.429-105.429t66.857-81.143 93.714-50.857 106.571-18.571 106.571 18.571 93.714 50.857 66.857 81.143 25.429 105.429z" /></g></svg>