<?xml version="1.0" encoding="utf-8"?><!DOCTYPE svg PUBLIC "-//W3C//DTD SVG 1.1//EN" "http://www.w3.org/Graphics/SVG/1.1/DTD/svg11.dtd"><svg version="1.1" xmlns="http://www.w3.org/2000/svg" xmlns:xlink="http://www.w3.org/1999/xlink" width="27.968747198581696" height="28" viewBox="0 0 27.968747198581696 28" data-code="61948" data-tags="paint-brush"><g fill="#444" transform="scale(0.02734375 0.02734375)"><path d="M922.857 0q40 0 70 26.571t30 66.571q0 36-25.714 86.286-189.714 359.429-265.714 429.714-55.429 52-124.571 52-72 0-123.714-52.857t-51.714-125.429q0-73.143 52.571-121.143l364.571-330.857q33.714-30.857 74.286-30.857zM403.429 590.857q22.286 43.429 60.857 74.286t86 43.429l0.571 40.571q2.286 121.714-74 198.286t-199.143 76.571q-70.286 0-124.571-26.571t-87.143-72.857-49.429-104.571-16.571-125.714q4 2.857 23.429 17.143t35.429 25.429 33.714 20.857 26.286 9.714q23.429 0 31.429-21.143 14.286-37.714 32.857-64.286t39.714-43.429 50.286-27.143 58.857-14.571 71.429-6z" /></g></svg>