<?xml version="1.0" encoding="utf-8"?><!DOCTYPE svg PUBLIC "-//W3C//DTD SVG 1.1//EN" "http://www.w3.org/Graphics/SVG/1.1/DTD/svg11.dtd"><svg version="1.1" xmlns="http://www.w3.org/2000/svg" xmlns:xlink="http://www.w3.org/1999/xlink" width="28.000000139077507" height="28" viewBox="0 0 28.000000139077507 28" data-code="61850" data-tags="wordpress"><g fill="#444" transform="scale(0.02734375 0.02734375)"><path d="M72.571 512q0-93.143 38.286-178.857l209.714 574.286q-112-54.286-180-160.571t-68-234.857zM808.571 489.714q0 10.857-1.429 22t-5.714 28.286-6.571 25.143-10 33.714-10 33.143l-43.429 146.286-158.857-472q26.286-1.714 50.286-4.571 10.857-1.143 14.857-10.571t-1.429-17.714-16.286-7.714l-117.143 5.714q-42.857-0.571-115.429-5.714-6.857-0.571-11.714 2.857t-6.571 8.571-0.857 10.571 5.143 9.429 11.143 4.571l45.714 4.571 68.571 187.429-96 288-160-475.429q26.286-1.714 50.286-4.571 10.857-1.143 14.857-10.571t-1.429-17.714-16.286-7.714l-117.143 5.714q-4 0-13.143-0.286t-14.857-0.286q60-91.429 156.857-144.857t210-53.429q84 0 160.286 30.286t136.286 85.143h-5.714q-31.429 0-52.571 23.143t-21.143 54.571q0 6.857 1.143 13.714t2.286 12.286 4.571 13.143 5.143 12 6.857 12.857 7.143 12 8.286 13.714 8 13.143q36 61.143 36 121.143zM519.429 550.286l135.429 369.714q0.571 3.429 2.857 6.286-72 25.143-145.714 25.143-64 0-124-18.286zM897.143 301.143q54.286 99.429 54.286 210.857 0 119.429-59.429 220.286t-159.429 159.143l134.286-387.429q33.714-96.571 33.714-157.714 0-24-3.429-45.143zM512 0q104 0 198.857 40.571t163.429 109.143 109.143 163.429 40.571 198.857-40.571 198.857-109.143 163.429-163.429 109.143-198.857 40.571-198.857-40.571-163.429-109.143-109.143-163.429-40.571-198.857 40.571-198.857 109.143-163.429 163.429-109.143 198.857-40.571zM512 1000.571q98.857 0 189.429-38.857t156-104.286 104.286-156 38.857-189.429-38.857-189.429-104.286-156-156-104.286-189.429-38.857-189.429 38.857-156 104.286-104.286 156-38.857 189.429 38.857 189.429 104.286 156 156 104.286 189.429 38.857z" /></g></svg>