<?xml version="1.0" encoding="utf-8"?>
<!-- Generated by IcoMoon.io -->
<!DOCTYPE svg PUBLIC "-//W3C//DTD SVG 1.1//EN" "http://www.w3.org/Graphics/SVG/1.1/DTD/svg11.dtd">
<svg version="1.1" xmlns="http://www.w3.org/2000/svg" xmlns:xlink="http://www.w3.org/1999/xlink" width="512" height="512" viewBox="0 0 512 512">
<g id="icomoon-ignore">
</g>
<path d="M512 328.771c0-41.045-28.339-75.45-66.498-84.74-1.621-64.35-54.229-116.031-118.931-116.031-37.896 0-71.633 17.747-93.427 45.366-12.221-15.799-31.345-25.98-52.854-25.98-36.905 0-66.821 29.937-66.821 66.861 0 3.218 0.24 6.38 0.682 9.477-5.611-1.012-11.383-1.569-17.285-1.569-53.499-0.001-96.866 43.393-96.866 96.921 0 53.531 43.367 96.924 96.865 96.924l328.131-0.006c48.069-0.092 87.004-39.106 87.004-87.223z"></path>
</svg>
